<svg xmlns="http://www.w3.org/2000/svg" xml:space="preserve" viewBox="0 0 495 495"><path d="M142.199 0h40v92.546h-40zM227.5 0h40v92.546h-40zm85.301 0h40v92.546h-40z" style="fill:#bddbff"/><path d="M142.199 402.454h40V495h-40zm85.301 0h40V495h-40zm85.301 0h40V495h-40zm89.653-260.51H495v40h-92.546zm0 85.302H495v40h-92.546zm0 85.3H495v40h-92.546z" style="fill:#9bc9ff"/><path d="M0 141.944h92.546v40H0zm0 85.302h92.546v40H0zm0 85.3h92.546v40H0z" style="fill:#bddbff"/><path d="M247.5 326.065h-78.564v-157.13H247.5V92.546H92.546v309.908H247.5z" style="fill:#2488ff"/><path d="M402.454 92.546H247.5v76.389h78.564v157.13H247.5v76.389h154.954z" style="fill:#005ece"/><path d="M168.936 168.935H247.5v157.13h-78.564z" style="fill:#ffda44"/><path d="M247.5 168.935h78.564v157.13H247.5z" style="fill:#ffcd00"/></svg>