<?xml version="1.0" encoding="iso-8859-1"?>
<!-- Uploaded to: SVG Repo, www.svgrepo.com, Transformed by: SVG Repo Mixer Tools -->
<!DOCTYPE svg PUBLIC "-//W3C//DTD SVG 1.1//EN" "http://www.w3.org/Graphics/SVG/1.1/DTD/svg11.dtd">
<svg fill="#000000" version="1.1" id="Capa_1" xmlns="http://www.w3.org/2000/svg" xmlns:xlink="http://www.w3.org/1999/xlink" 
	 width="800px" height="800px" viewBox="0 0 98.166 98.166"
	 xml:space="preserve">
<g>
	<g>
		<path d="M68.789,54.943c0-4.256-0.007-9.083-0.007-11.324c0-10.859-8.832-19.694-19.691-19.694
			c-10.858,0-19.698,8.835-19.698,19.694c0,2.256-0.003,7.08-0.009,11.324c-5.146,0-9.317,4.17-9.317,9.314v24.594
			c0,5.145,4.171,9.314,9.317,9.314h39.4c5.146,0,9.317-4.17,9.317-9.314V64.254C78.101,59.113,73.929,54.943,68.789,54.943z
			 M52.666,76.789v7.691c0,1.979-1.602,3.582-3.582,3.582c-1.977,0-3.581-1.604-3.581-3.582v-7.691
			c-1.747-1.164-2.901-3.146-2.901-5.402c0-3.578,2.904-6.482,6.482-6.482c3.582,0,6.486,2.904,6.486,6.482
			C55.57,73.641,54.416,75.625,52.666,76.789z M36.888,54.943c0.006-4.246,0.013-9.066,0.013-11.326
			c0-6.719,5.466-12.186,12.189-12.186c6.716,0,12.184,5.467,12.184,12.186c0,2.238,0.006,7.066,0.006,11.326H36.888z"/>
		<path d="M77.007,14.234c-0.695-0.06-1.334-0.415-1.75-0.976c-3.791-5.102-9.856-8.246-16.31-8.246
			c-0.396,0-0.793,0.012-1.188,0.035c-0.578,0.034-1.146-0.138-1.608-0.486C52.218,1.603,47.46,0,42.476,0
			C33.546,0,25.618,5.166,21.9,12.992c-0.351,0.74-1.051,1.253-1.861,1.369c-9.84,1.402-17.43,9.883-17.43,20.103
			c0,10.296,7.709,18.806,17.656,20.11c1.444-1.359,3.186-2.407,5.123-3.018c0.001-1.699,0.003-3.354,0.004-4.789h-2.478
			c-6.785,0-12.305-5.52-12.305-12.305s5.52-12.305,12.305-12.305c0.343,0,0.68,0.027,1.015,0.055
			c1.955,0.151,3.726-1.117,4.202-3.014C29.786,12.605,35.685,8,42.475,8c3.88,0,7.552,1.499,10.339,4.219
			c0.953,0.929,2.307,1.325,3.609,1.053c0.83-0.173,1.68-0.261,2.524-0.261c4.75,0,8.993,2.671,11.071,6.97
			c0.73,1.512,2.328,2.411,3.999,2.239c0.416-0.042,0.831-0.063,1.233-0.063c6.785,0,12.306,5.52,12.306,12.305
			c0,6.785-5.521,12.305-12.306,12.305h-2.47l0.002,4.789c1.937,0.611,3.677,1.658,5.12,3.017
			c9.944-1.305,17.653-9.815,17.653-20.11C95.558,23.859,87.384,15.126,77.007,14.234z"/>
	</g>
</g>
</svg>