<svg xmlns="http://www.w3.org/2000/svg" xml:space="preserve" width="800" height="800" viewBox="0 0 98.166 98.166"><path d="M68.789 54.943c0-4.256-.007-9.083-.007-11.324 0-10.859-8.832-19.694-19.691-19.694-10.858 0-19.698 8.835-19.698 19.694 0 2.256-.003 7.08-.009 11.324-5.146 0-9.317 4.17-9.317 9.314v24.594c0 5.145 4.171 9.314 9.317 9.314h39.4c5.146 0 9.317-4.17 9.317-9.314V64.254c0-5.141-4.172-9.311-9.312-9.311zM52.666 76.789v7.691a3.58 3.58 0 1 1-7.163 0v-7.691a6.48 6.48 0 0 1 3.581-11.884 6.485 6.485 0 0 1 6.486 6.482 6.478 6.478 0 0 1-2.904 5.402zM36.888 54.943c.006-4.246.013-9.066.013-11.326 0-6.719 5.466-12.186 12.189-12.186 6.716 0 12.184 5.467 12.184 12.186 0 2.238.006 7.066.006 11.326H36.888z"/><path d="M77.007 14.234a2.441 2.441 0 0 1-1.75-.976c-3.791-5.102-9.856-8.246-16.31-8.246-.396 0-.793.012-1.188.035a2.431 2.431 0 0 1-1.608-.486A22.659 22.659 0 0 0 42.476 0 22.76 22.76 0 0 0 21.9 12.992a2.442 2.442 0 0 1-1.861 1.369c-9.84 1.402-17.43 9.883-17.43 20.103 0 10.296 7.709 18.806 17.656 20.11a13.339 13.339 0 0 1 5.123-3.018l.004-4.789h-2.478c-6.785 0-12.305-5.52-12.305-12.305s5.52-12.305 12.305-12.305c.343 0 .68.027 1.015.055a4.002 4.002 0 0 0 4.202-3.014A14.776 14.776 0 0 1 42.475 8a14.73 14.73 0 0 1 10.339 4.219 4.001 4.001 0 0 0 3.609 1.053c.83-.173 1.68-.261 2.524-.261 4.75 0 8.993 2.671 11.071 6.97a3.991 3.991 0 0 0 3.999 2.239 12.33 12.33 0 0 1 1.233-.063c6.785 0 12.306 5.52 12.306 12.305S82.035 46.767 75.25 46.767h-2.47l.002 4.789a13.317 13.317 0 0 1 5.12 3.017c9.944-1.305 17.653-9.815 17.653-20.11.003-10.604-8.171-19.337-18.548-20.229z"/></svg>